<svg xmlns="http://www.w3.org/2000/svg" width="580" height="400"><path fill="#fff" d="M-1-1h582v402H-1z"/><g><path fill="#C7C7C7" fill-rule="evenodd" stroke="null" d="M356.03 147.4l1.4 57.85c.15.35.3.71.45 1.07l12.21 5.12-10.29 7.83c-.03.36-.08.73-.13 1.1l8.36 9.55-13 2.57c-10.3 15.95-35.73 27.23-65.47 27.23-29.58 0-54.9-11.16-65.3-26.98l-14.29-2.82 8.88-10.16-10.94-8.32 13.57-5.7c.17-.4.35-.79.54-1.18l-1.35-56 49.11 26.8a112.57 112.57 0 0119.78-1.73c7.1 0 13.97.64 20.43 1.84l46.04-28.08z" clip-rule="evenodd"/></g></svg>