<svg xmlns="http://www.w3.org/2000/svg" width="507pt" height="352pt" version="1" viewBox="0 0 507.000000 352.000000"><path d="M349.6 39.7l-50 30.4-12-1.7c-15.8-2.3-49.4-2.3-65.3-.1l-11.2 1.6-53.1-29c-29.3-16-53.4-28.8-53.7-28.5-.4.4.7 55.5 2.2 104.1.3 9.9.2 18.5-.2 19.1-.4.6-7.2 3.8-15 7-7.9 3.2-14.3 6.1-14.3 6.4 0 .4 5.2 4.6 11.5 9.4l11.6 8.7-9.7 11c-5.3 6-9.5 11.1-9.3 11.3.2.1 7.3 1.5 15.6 3.1l15.3 2.9 2.5 3.7c4.3 6.6 16.5 17.8 26.5 24.4 16.8 11.2 39.1 20.4 61.7 25.4 31.6 7.1 71.5 7 104.3 0 27.3-5.9 54.5-18.6 72.7-33.7 5.7-4.8 14.9-14.8 17-18.7.6-.9 5.4-2.4 13.8-4 7.2-1.5 13.6-2.8 14.3-3 .8-.3-2.1-4.3-7.7-10.7-5-5.7-9.1-10.8-9.1-11.4 0-.7 4.9-4.9 11-9.5 6-4.6 11-8.6 11-8.9 0-.3-5.8-2.9-12.9-5.8-7.1-3-13.2-6-13.5-6.7-.2-.7-1-23.7-1.6-51.1-.6-27.5-1.5-55.8-1.8-63l-.7-13.1-49.9 30.4zM159 288c0 9.4 1.7 12.6 2.2 4.2.3-4.3.5-4.7 2.8-4.7s2.5.4 2.8 4.7c.4 6.3 2.2 6.2 2.2-.1 0-5.6-1.7-7.6-5.5-6.7-2.3.6-2.5.4-2.5-2.9 0-1.9-.4-3.5-1-3.5s-1 3.7-1 9zM364 282.5c0 3.3-.1 3.4-2.9 2.9-2.2-.5-3.2-.1-4.5 1.7-3.6 5.1-.8 9.8 5.7 9.6l3.7-.1v-8.8c0-5.2-.4-8.8-1-8.8-.5 0-1 1.6-1 3.5zm-.5 8.5c0 3.8-2.4 5.2-5 3-3.1-2.5-.9-7.3 3-6.8 1.6.2 2 1.1 2 3.8zM145 281c0 .5 1.1 1 2.5 1 2.4 0 2.5.2 2.5 7.5 0 4.3.4 7.5 1 7.5s1-3.2 1-7.5c0-7.3.1-7.5 2.5-7.5 1.4 0 2.5-.5 2.5-1 0-.6-2.7-1-6-1s-6 .4-6 1zM206.5 281.5c-.3.8-.7 2.2-1 3-.9 2.9 1.3 1.5 2.4-1.5.6-1.9.6-3 0-3-.5 0-1.2.7-1.4 1.5zM281 283.4c0 .8-.6 1.7-1.2 2-1 .5-1 .7 0 1.2.6.3 1.2 2.1 1.2 3.9 0 1.8.3 4 .6 4.9.7 1.7 4.4 2.2 4.4.6 0-.6-.7-1-1.5-1-1.1 0-1.5-1.1-1.5-4s.4-4 1.5-4c.8 0 1.5-.5 1.5-1 0-.6-.7-1-1.5-1s-1.5-.7-1.5-1.5-.4-1.5-1-1.5c-.5 0-1 .6-1 1.4zM174 287c-4.1 4.1-1.3 10 4.8 10 4.5 0 4-1.8-.5-2.2-2.7-.2-3.9-.8-4.1-2.1-.3-1.4.4-1.7 4.2-1.7 5 0 6-1.5 2.8-4.3-2.5-2.2-4.8-2.1-7.2.3zm7 2c0 .6-1.6 1-3.5 1-3.8 0-4.6-1.3-1.8-2.9 1.9-1 5.3.2 5.3 1.9zM185 291c0 3.3.4 6 1 6s1-1.8 1-3.9c0-3 .6-4.4 2.2-5.5 1.2-.9 1.9-1.9 1.5-2.2-.4-.4-1.3-.1-2.2.6-1 .8-1.5.9-1.5.1 0-.6-.4-1.1-1-1.1s-1 2.7-1 6zM194.6 287.2c-3.3 4.6-.7 9.8 4.7 9.8 3.8 0 3.4-1.8-.5-2.2-2.2-.2-3.4-.9-3.6-2.1-.3-1.4.4-1.7 3.7-1.7 4.5 0 5.4-1.6 2.5-4.4-2.2-2.2-5-2-6.8.6zm6.4 1.9c0 .5-1.3.9-3 .9-3.3 0-3.9-1.4-1.3-2.9 1.8-1 4.3.2 4.3 2zM210.2 286.2c-1.9 1.9-1.4 3.7 1.3 5 1.4.6 2.5 1.7 2.5 2.5 0 .7-1.1 1.3-2.5 1.3s-2.5.5-2.5 1.1c0 1.7 5.2.6 6.4-1.4.9-1.5.6-2.2-1.6-4.1-3.5-2.7-3.5-3.6-.2-3.6 1.4 0 2.3-.4 1.9-1-.8-1.4-3.8-1.3-5.3.2zM224 291c0 7.1 1.6 8 2.2 1.2.5-5.1.1-7.2-1.3-7.2-.5 0-.9 2.7-.9 6zM227.5 286c-.3.6.5 1 1.8 1 2.8 0 3.7 1.6 3.7 6.6 0 1.9.5 3.4 1 3.4 1.3 0 1.3-7.6 0-10.1-1.1-2-5.4-2.6-6.5-.9zM239.7 286.8c-3.5 3.8-.9 10.2 4 10.2 4.7 0 7.1-7.1 3.5-10.3-2.4-2.2-5.5-2.1-7.5.1zm6.8 2.2c1 3.2-.4 6-3 6s-4-2.8-3-6c.4-1.3 1.5-2 3-2s2.6.7 3 2zM259 287c-1.1 1.1-2 2.9-2 4 0 2.8 3.5 6 6.5 6 3.3 0 3.2-1.8-.1-2.2-3.5-.4-5.3-3.1-3.8-5.6.6-.9 2.3-1.8 3.8-2 1.4-.2 2.6-.8 2.6-1.3 0-1.7-5-.9-7 1.1zM269.5 285.9c-.3.5.7 1.1 2.2 1.3 3.4.4 4.4 2.8 1.1 2.8-2.9 0-4.8 1.7-4.8 4.2 0 2 0 2 5.3 2.3l3.7.2v-4.6c0-2.6-.5-5.2-1.2-5.9-1.4-1.4-5.4-1.6-6.3-.3zm5.3 6.8c-.4 2.2-4.8 3.1-4.8 1 0-1.9 1-2.7 3.2-2.7 1.3 0 1.8.6 1.6 1.7zM294.5 285.9c-.3.5.7 1.1 2.2 1.3 3.4.4 4.4 2.8 1.1 2.8-2.9 0-4.8 1.7-4.8 4.2 0 2 0 2 5.3 2.3l3.7.2v-4.6c0-2.6-.5-5.2-1.2-5.9-1.4-1.4-5.4-1.6-6.3-.3zm5.3 6.8c-.4 2.2-4.8 3.1-4.8 1 0-1.9 1-2.7 3.2-2.7 1.3 0 1.8.6 1.6 1.7zM306 291.2c0 3.2.4 5.8 1 5.8s1-1.5 1-3.4c0-4.4.9-6.6 2.6-6.6.8 0 1.4-.4 1.4-.8 0-.5-1.3-.9-3-.9-3 0-3 .1-3 5.9zM315 287c-1.1 1.1-2 2.9-2 4 0 2.6 3.4 6 6 6 1.1 0 2.9-.9 4-2s2-2.9 2-4-.9-2.9-2-4-2.9-2-4-2-2.9.9-4 2zm7 1.5c1.5 1.8 1 4.5-1.2 5.9-3.5 2.2-7.4-2.7-4.8-5.9 1.6-1.9 4.4-1.9 6 0zM328.2 290.1c.3 6 2.4 8.2 5.8 6.1 1.2-.7 2-.8 2-.2 0 .5.5 1 1 1 .6 0 1-2.7 1-6 0-7.1-1.8-8.1-2.2-1.3-.3 4.4-.5 4.8-2.8 4.8s-2.5-.4-2.8-4.8c-.2-2.6-.8-4.7-1.3-4.7-.6 0-.9 2.2-.7 5.1zM342 291.2c0 7 1.8 7.8 2.2 1 .3-4.3.5-4.7 2.8-4.7s2.5.4 2.8 4.7c.4 6.3 2.2 6.2 2.2-.1 0-5.7-1.2-7-6.2-6.8l-3.8.1v5.8zM80 321c0 5.3.4 9 1 9s1-1.5 1-3.4c0-4.9.9-6.6 3.5-6.6s3.5 1.7 3.5 6.6c0 1.9.5 3.4 1 3.4 1.5 0 1.2-8.3-.3-10.5-1.1-1.4-2.2-1.7-4.5-1.2-3.1.6-3.2.5-3.2-2.8 0-1.9-.4-3.5-1-3.5s-1 3.7-1 9zM221 321c0 9.4 1.7 12.6 2.2 4.2.3-4.3.5-4.7 2.8-4.7s2.5.4 2.8 4.7c.4 6.3 2.2 6.2 2.2-.1 0-5.6-1.7-7.6-5.5-6.7-2.3.6-2.5.4-2.5-2.9 0-1.9-.4-3.5-1-3.5s-1 3.7-1 9zM282 321c0 9.4 1.7 12.6 2.2 4.2.3-4.3.5-4.7 2.8-4.7s2.5.4 2.8 4.7c.4 6.3 2.2 6.2 2.2-.1 0-5.6-1.7-7.6-5.5-6.7-2.3.6-2.5.4-2.5-2.9 0-1.9-.4-3.5-1-3.5s-1 3.7-1 9zM348 315.5c0 3.3-.1 3.4-2.9 2.9-2.2-.5-3.2-.1-4.5 1.7-3.6 5.1-.8 9.8 5.7 9.6l3.7-.1v-8.8c0-5.2-.4-8.8-1-8.8-.5 0-1 1.6-1 3.5zm-.5 8.5c0 3.8-2.4 5.2-5 3-3.1-2.5-.9-7.3 3-6.8 1.6.2 2 1.1 2 3.8zM362 315.5c0 3.3-.1 3.4-2.9 2.9-2.2-.5-3.2-.1-4.5 1.7-3.6 5.1-.8 9.8 5.7 9.6l3.7-.1v-8.8c0-5.2-.4-8.8-1-8.8-.5 0-1 1.6-1 3.5zm-.5 8.5c0 3.8-2.4 5.2-5 3-3.1-2.5-.9-7.3 3-6.8 1.6.2 2 1.1 2 3.8zM29 321.5c0 5 .4 8.5 1 8.5s1-1.3 1-2.9c0-2.3.5-3 2.7-3.6 4-1 5.3-2.4 5.3-5.6 0-3.3-2.3-4.9-6.9-4.9H29v8.5zm7.7-4.9c.8 2.2-.9 4.8-3.6 5.2-1.8.3-2.1-.1-2.1-3.2 0-3.2.3-3.6 2.5-3.6 1.5 0 2.8.7 3.2 1.6zM200.5 313.9c-.6 1.1.9 2.3 1.9 1.4.9-.9.7-2.3-.3-2.3-.6 0-1.2.4-1.6.9zM266.2 313.9c.4 1.3 1.8 1.6 1.9.4 0-.4-.5-.9-1.1-1.2-.7-.2-1.1.2-.8.8zM235 316.4c0 .8-.6 1.7-1.2 1.9-1 .4-1 .7-.1 1.4.6.5 1.3 2.9 1.5 5.3.2 3.8.7 4.6 2.6 4.8 1.2.2 2.2-.1 2.2-.7s-.7-1.1-1.5-1.1c-1.1 0-1.5-1.1-1.5-4s.4-4 1.5-4c.8 0 1.5-.5 1.5-1 0-.6-.7-1-1.5-1s-1.5-.7-1.5-1.5-.4-1.5-1-1.5c-.5 0-1 .6-1 1.4zM301 316.4c0 .8-.6 1.7-1.2 2-1 .5-1 .7 0 1.2.6.3 1.2 2.1 1.2 3.9 0 1.8.3 4 .6 4.9.7 1.7 4.4 2.2 4.4.6 0-.6-.7-1-1.5-1-1.1 0-1.5-1.1-1.5-4s.4-4 1.5-4c.8 0 1.5-.5 1.5-1 0-.6-.7-1-1.5-1s-1.5-.7-1.5-1.5-.4-1.5-1-1.5c-.5 0-1 .6-1 1.4zM42.2 323.1c.3 6 2.4 8.2 5.8 6.1 1.2-.7 2-.8 2-.2 0 .5.5 1 1 1 .6 0 1-2.7 1-6 0-7.1-1.8-8.1-2.2-1.3-.3 4.4-.5 4.8-2.8 4.8s-2.5-.4-2.8-4.8c-.2-2.6-.8-4.7-1.3-4.7-.6 0-.9 2.2-.7 5.1zM55 324c0 3.3.4 6 1 6s1-1.8 1-3.9c0-3 .6-4.4 2.2-5.5 1.2-.9 1.9-1.9 1.5-2.2-.4-.4-1.3-.1-2.2.6-1 .8-1.5.9-1.5.1 0-.6-.4-1.1-1-1.1s-1 2.7-1 6zM64 324.2c0 3.2.4 5.8 1 5.8s1-1.5 1-3.4c0-4.4.9-6.6 2.6-6.6.8 0 1.4-.4 1.4-.8 0-.5-1.3-.9-3-.9-3 0-3 .1-3 5.9zM72 324.2c0 3.2.4 5.8 1 5.8s1-1.5 1-3.4c0-4.4.9-6.6 2.6-6.6.8 0 1.4-.4 1.4-.8 0-.5-1.3-.9-3-.9-3 0-3 .1-3 5.9zM94.5 318.9c-.3.5.9 1.1 2.7 1.3 4 .4 4.2 2.1.4 2.8-6.8 1.2-5.5 7 1.5 6.7l3.9-.1v-4.8c0-3.7-.4-5-1.9-5.8-2.4-1.3-5.8-1.3-6.6-.1zm6.3 6.8c-.4 2.1-3.6 2.9-5.1 1.4-.9-.9-.8-1.4.3-2.1 2.5-1.6 5.2-1.2 4.8.7zM106 326.5c0 5 .4 8.5 1 8.5s1-1.3 1-2.9c0-2.8.2-2.9 3.4-2.4 2.7.4 3.6.1 5-1.8.9-1.3 1.6-3.3 1.6-4.5 0-4.2-6-7-8.8-4.2-.9.9-1.2.9-1.2 0 0-.7-.4-1.2-1-1.2s-1 3.5-1 8.5zm9.4-4.3c1.5 2.5-.3 5.2-3.7 5.6-2.1.3-2.8-.2-3.3-2.2-1.2-4.9 4.3-7.6 7-3.4zM121.2 319.2c-1.9 1.9-1.4 3.7 1.3 5 1.4.6 2.5 1.7 2.5 2.5 0 .7-1.1 1.3-2.5 1.3s-2.5.5-2.5 1.1c0 1.7 5.2.6 6.4-1.4.9-1.5.6-2.2-1.6-4.1-3.5-2.7-3.5-3.6-.2-3.6 1.4 0 2.3-.4 1.9-1-.8-1.4-3.8-1.3-5.3.2zM136.1 323.2c1.1 2.9 2.2 5.5 2.5 6 .3.4-.4 1.6-1.6 2.8-2.4 2.4-2.5 3-.4 3 .9 0 2.6-2.5 4.4-6.3 3.6-7.9 4.4-10.7 3.1-10.7-.6 0-1.6 1.8-2.2 4-.7 2.2-1.6 4-2 4-.5 0-1.4-1.8-2-4-.7-2.2-1.8-4-2.5-4-1.1 0-.9 1.2.7 5.2zM148 320c-1.1 1.1-2 2.9-2 4 0 2.6 3.4 6 6 6s6-3.4 6-6c0-1.1-.9-2.9-2-4s-2.9-2-4-2-2.9.9-4 2zm7 1.5c1.5 1.8 1 4.5-1.2 5.9-3.5 2.2-7.4-2.7-4.8-5.9 1.6-1.9 4.4-1.9 6 0zM161.2 323.1c.3 6 2.4 8.2 5.8 6.1 1.2-.7 2-.8 2-.2 0 .5.5 1 1 1 .6 0 1-2.7 1-6 0-7.1-1.8-8.1-2.2-1.3-.3 4.4-.5 4.8-2.8 4.8s-2.5-.4-2.8-4.8c-.2-2.6-.8-4.7-1.3-4.7-.6 0-.9 2.2-.7 5.1zM180 324.2c0 7 1.8 7.8 2.2 1 .3-3.9.6-4.7 2.3-4.7 1.7 0 2 .8 2.3 4.7.2 2.7.7 4.8 1.2 4.8s1-2.1 1.2-4.8c.3-4.3.5-4.7 2.8-4.7s2.5.4 2.8 4.7c.4 6.3 2.2 6.2 2.2-.1 0-6.1-1.8-8-6.1-6.4-1.6.6-3.1.8-3.4.3-.3-.4-2.1-.8-4-.7l-3.5.1v5.8zM201 324c0 3.3.4 6 1 6s1-2.7 1-6-.4-6-1-6-1 2.7-1 6zM207.6 319.9c-3.8 4.2-.7 10.8 4.7 9.7 2.4-.5 2.8-.3 2.3 1-.3.9-.6 1.8-.6 2 0 .2-1.6.4-3.6.4-2.1 0-3.3.4-2.9 1 1 1.7 6.1 1.1 7.8-.8 1.2-1.3 1.7-3.7 1.7-8.3v-6.5l-3.9-.1c-2.6-.1-4.4.4-5.5 1.6zm7 1.6c1.2 3-.5 6.5-3.1 6.5s-4-2.7-3-6c.8-2.4 5.3-2.8 6.1-.5zM247 318.6c0 2.6 3.4 11.4 4.3 11.1.6-.2 1.7-2.3 2.5-4.7l1.5-4.4 1.4 4.8c.8 2.6 1.9 4.6 2.5 4.4 1.2-.4 5.1-10.8 4.4-11.6-1.1-1-2.5 1.1-3.1 4.9-.8 4.6-1.5 4.4-3-.9-1.5-5.1-2.9-4.9-4.7.5l-1.5 4.8-1.3-4.8c-.7-2.6-1.6-4.7-2.1-4.7s-.9.3-.9.6zM266 324c0 3.3.4 6 1 6s1-2.7 1-6-.4-6-1-6-1 2.7-1 6zM272.2 319.2c-2 2-1.4 3.7 1.8 5.3 3.4 1.8 3.1 3.5-.6 3.5-1.3 0-2.4.4-2.4 1 0 1.6 5.6 1.2 7-.5 1.6-2 .6-4.3-2.5-5.5-3.2-1.2-3.2-3 0-3 1.4 0 2.5-.5 2.5-1 0-1.4-4.3-1.3-5.8.2zM310 320c-1.1 1.1-2 2.9-2 4 0 2.6 3.4 6 6 6s6-3.4 6-6c0-1.1-.9-2.9-2-4s-2.9-2-4-2-2.9.9-4 2zm7 1.5c1.5 1.8 1 4.5-1.2 5.9-3.5 2.2-7.4-2.7-4.8-5.9 1.6-1.9 4.4-1.9 6 0zM328.5 318.9c-.3.5.7 1.1 2.2 1.3 3.4.4 4.4 2.8 1.1 2.8-2.9 0-4.8 1.7-4.8 4.2 0 2 0 2 5.3 2.3l3.7.2v-4.6c0-2.6-.5-5.2-1.2-5.9-1.4-1.4-5.4-1.6-6.3-.3zm5.3 6.8c-.4 2.2-4.8 3.1-4.8 1 0-1.9 1-2.7 3.2-2.7 1.3 0 1.8.6 1.6 1.7zM373.5 318.9c-.3.5.9 1.1 2.7 1.3 4 .4 4.2 2.1.4 2.8-6.8 1.2-5.5 7 1.5 6.7l3.9-.1v-4.8c0-3.7-.4-5-1.9-5.8-2.4-1.3-5.8-1.3-6.6-.1zm6.3 6.8c-.4 2.1-3.6 2.9-5.1 1.4-.9-.9-.8-1.4.3-2.1 2.5-1.6 5.2-1.2 4.8.7zM391 324.2c0 7 1.8 7.8 2.2 1 .3-4.3.5-4.7 2.8-4.7s2.5.4 2.8 4.7c.4 6.3 2.2 6.2 2.2-.1 0-5.7-1.2-7-6.2-6.8l-3.8.1v5.8zM406 320c-4.1 4.1-1.3 10 4.8 10 4.5 0 4-1.8-.5-2.2-2.7-.2-3.9-.8-4.1-2.1-.3-1.4.4-1.7 4.2-1.7 5 0 6-1.5 2.8-4.3-2.5-2.2-4.8-2.1-7.2.3zm7 2c0 .6-1.6 1-3.5 1-3.8 0-4.6-1.3-1.8-2.9 1.9-1 5.3.2 5.3 1.9zM416.5 320.1c3.6 11.2 4.5 11.9 6.7 5.2l1.6-4.8 1.3 4.7c.7 2.7 1.8 4.8 2.4 4.8.6 0 1.9-2.4 2.8-5.3 2-6.2 2-6.7.8-6.7-.5 0-1.4 2.1-2.1 4.7l-1.3 4.8-1.5-4.8c-.9-2.6-2-4.6-2.6-4.4-.5.2-1.6 2.3-2.5 4.8l-1.5 4.4-1.1-4.4c-.6-2.5-1.7-4.7-2.4-4.9-1-.3-1.1.2-.6 1.9zM442.7 319.8c-3.5 3.8-.9 10.2 4 10.2 4.7 0 7.1-7.1 3.5-10.3-2.4-2.2-5.5-2.1-7.5.1zm6.8 2.2c1 3.2-.4 6-3 6-1.5 0-2.6-.7-3-2-1-3.2.4-6 3-6 1.5 0 2.6.7 3 2zM455 324c0 7.1 1.6 8 2.2 1.2.5-5.1.1-7.2-1.3-7.2-.5 0-.9 2.7-.9 6zM458.5 319c-.3.6.5 1 1.8 1 2.8 0 3.7 1.6 3.7 6.6 0 1.9.5 3.4 1 3.4 1.3 0 1.3-7.6 0-10.1-1.1-2-5.4-2.6-6.5-.9zM470 320c-4.1 4.1-1.3 10 4.8 10 4.5 0 4-1.8-.5-2.2-2.7-.2-3.9-.8-4.1-2.1-.3-1.4.4-1.7 4.2-1.7 5 0 6-1.5 2.8-4.3-2.5-2.2-4.8-2.1-7.2.3zm7 2c0 .6-1.6 1-3.5 1-3.8 0-4.6-1.3-1.8-2.9 1.9-1 5.3.2 5.3 1.9z"/></svg>